<svg width="20" height="20" viewBox="0 0 20 20" fill="none" xmlns="http://www.w3.org/2000/svg">
    <path d="M10.83 15.6589L10.83 6.35054L14.8967 10.4172C15.2217 10.7422 15.755 10.7422 16.08 10.4172C16.1573 10.3401 16.2186 10.2485 16.2604 10.1477C16.3022 10.0469 16.3237 9.93885 16.3237 9.82971C16.3237 9.72057 16.3022 9.6125 16.2604 9.51169C16.2186 9.41088 16.1573 9.3193 16.08 9.24221L10.5884 3.75054C10.5113 3.67329 10.4197 3.612 10.3189 3.57018C10.2181 3.52836 10.11 3.50684 10.0009 3.50684C9.89172 3.50684 9.78365 3.52836 9.68284 3.57018C9.58203 3.612 9.49045 3.67329 9.41336 3.75054L3.92169 9.24221C3.84454 9.31936 3.78334 9.41095 3.74159 9.51175C3.69983 9.61256 3.67834 9.7206 3.67834 9.82971C3.67834 9.93882 3.69983 10.0469 3.74159 10.1477C3.78334 10.2485 3.84454 10.3401 3.92169 10.4172C3.99884 10.4944 4.09044 10.5556 4.19124 10.5973C4.29204 10.6391 4.40009 10.6606 4.50919 10.6606C4.6183 10.6606 4.72634 10.6391 4.82715 10.5973C4.92795 10.5556 5.01954 10.4944 5.09669 10.4172L9.16336 6.35054L9.16336 15.6589C9.16336 16.1172 9.53836 16.4922 9.99669 16.4922C10.455 16.4922 10.83 16.1172 10.83 15.6589Z" fill="#1D1D1B"/>
</svg>
