<svg width="20" height="20" viewBox="0 0 20 20" fill="none" xmlns="http://www.w3.org/2000/svg">
    <g clip-path="url(#clip0_14_22978)">
        <circle cx="10" cy="10" r="7.5" transform="rotate(-180 10 10)" stroke="#1D1D1B" stroke-width="1.33" stroke-linecap="round" stroke-linejoin="round"/>
        <path d="M10 2.5C10.9849 2.5 11.9602 2.69399 12.8701 3.07091C13.7801 3.44782 14.6069 4.00026 15.3033 4.6967C15.9997 5.39314 16.5522 6.21993 16.9291 7.12988C17.306 8.03982 17.5 9.01509 17.5 10C17.5 10.9849 17.306 11.9602 16.9291 12.8701C16.5522 13.7801 15.9997 14.6069 15.3033 15.3033C14.6069 15.9997 13.7801 16.5522 12.8701 16.9291C11.9602 17.306 10.9849 17.5 10 17.5L10 10L10 2.5Z" fill="#1D1D1B"/>
    </g>
    <defs>
        <clipPath id="clip0_14_22978">
            <rect width="20" height="20" fill="white" transform="translate(20 20) rotate(-180)"/>
        </clipPath>
    </defs>
</svg>
