<svg width="20" height="20" viewBox="0 0 20 20" fill="none" xmlns="http://www.w3.org/2000/svg">
    <path d="M4.34113 10.83L13.6495 10.83L9.58279 14.8967C9.25779 15.2217 9.25779 15.755 9.58279 16.08C9.65989 16.1573 9.75146 16.2186 9.85227 16.2604C9.95308 16.3022 10.0612 16.3237 10.1703 16.3237C10.2794 16.3237 10.3875 16.3022 10.4883 16.2604C10.5891 16.2186 10.6807 16.1573 10.7578 16.08L16.2495 10.5884C16.3267 10.5113 16.388 10.4197 16.4298 10.3189C16.4716 10.2181 16.4932 10.11 16.4932 10.0009C16.4932 9.89172 16.4716 9.78365 16.4298 9.68284C16.388 9.58203 16.3267 9.49045 16.2495 9.41336L10.7578 3.92169C10.6806 3.84454 10.5891 3.78334 10.4882 3.74159C10.3874 3.69983 10.2794 3.67834 10.1703 3.67834C10.0612 3.67834 9.95314 3.69983 9.85234 3.74159C9.75154 3.78334 9.65995 3.84454 9.58279 3.92169C9.50564 3.99884 9.44444 4.09044 9.40269 4.19124C9.36093 4.29204 9.33944 4.40008 9.33944 4.50919C9.33944 4.6183 9.36093 4.72634 9.40269 4.82715C9.44444 4.92795 9.50564 5.01954 9.58279 5.09669L13.6495 9.16336L4.34113 9.16336C3.88279 9.16336 3.50779 9.53836 3.50779 9.99669C3.50779 10.455 3.88279 10.83 4.34113 10.83Z" fill="#1D1D1B" fill-opacity="0.4"/>
</svg>
